<svg width="347" height="30" viewBox="0 0 347 30" fill="none" xmlns="http://www.w3.org/2000/svg">
<mask id="mask0_1_23200" style="mask-type:luminance" maskUnits="userSpaceOnUse" x="0" y="0" width="347" height="30">
<path d="M347 0H0V29.063H347V0Z" fill="white"/>
</mask>
<g mask="url(#mask0_1_23200)">
<path d="M11.4181 29.0633C9.90342 29.076 8.39872 28.8176 6.97507 28.3003C5.65309 27.8237 4.42386 27.1213 3.34207 26.2243C2.32045 25.372 1.48658 24.3171 0.89307 23.1263C0.302227 21.9548 -0.00373565 20.6604 7.01356e-05 19.3483V9.67432C-0.00532674 8.36879 0.300814 7.0808 0.89307 5.91733C1.4912 4.73664 2.32463 3.69085 3.34207 2.84433C4.42386 1.94737 5.65309 1.24495 6.97507 0.768325C8.39846 0.249579 9.90314 -0.0105133 11.4181 0.000325295H37.2001V6.47733H11.4181C10.4348 6.45262 9.47587 6.78436 8.71807 7.41132C8.37039 7.67729 8.08867 8.0198 7.89478 8.41226C7.70089 8.80472 7.60005 9.23658 7.60007 9.67432V19.3483C7.60165 19.7892 7.70349 20.2239 7.89788 20.6196C8.09226 21.0153 8.3741 21.3616 8.72207 21.6323C9.47427 22.2714 10.4353 22.6113 11.4221 22.5873H37.2001V29.0643L11.4181 29.0633Z" fill="white"/>
<path d="M67.2899 18.767V29.067H59.6899V18.767L42.2949 0H51.4709L63.4709 12.082L75.5109 0H84.6829L67.2899 18.767Z" fill="white"/>
<path d="M128.1 9.2173C128.103 10.1998 127.913 11.1732 127.54 12.0823C127.163 13.0004 126.605 13.8333 125.899 14.5313C126.581 15.2367 127.13 16.0596 127.519 16.9603C127.909 17.8722 128.107 18.8546 128.1 19.8463V20.5523C128.104 21.6996 127.833 22.8311 127.31 23.8523C126.781 24.8952 126.045 25.8204 125.149 26.5723C124.195 27.3706 123.103 27.9895 121.928 28.3993C120.654 28.8493 119.31 29.0739 117.958 29.0633H90.1523V0.000295338H97.7523V22.6693H117.935C118.598 22.6883 119.246 22.4671 119.758 22.0463C119.989 21.8711 120.176 21.6451 120.306 21.3859C120.435 21.1266 120.503 20.841 120.504 20.5513V19.8453C120.502 19.566 120.437 19.2907 120.315 19.0395C120.193 18.7882 120.016 18.5672 119.798 18.3923C119.275 17.9591 118.609 17.7372 117.93 17.7703H105.264V11.3763H117.928C118.592 11.3954 119.241 11.1742 119.755 10.7533C119.99 10.5721 120.179 10.3392 120.309 10.0727C120.438 9.8063 120.505 9.51355 120.502 9.2173V8.5123C120.501 8.22246 120.433 7.93681 120.303 7.67754C120.174 7.41826 119.986 7.19233 119.755 7.0173C119.241 6.59641 118.592 6.3752 117.928 6.3943H105.264V0.000295338H117.928C119.281 -0.00931494 120.626 0.215682 121.902 0.665295C123.083 1.07426 124.18 1.69283 125.14 2.4913C126.04 3.2422 126.778 4.16702 127.311 5.2103C127.835 6.23116 128.107 7.36274 128.104 8.5103L128.1 9.2173Z" fill="white"/>
<path d="M145.158 29.0633C143.643 29.0744 142.139 28.8143 140.715 28.2953C139.393 27.8187 138.164 27.1163 137.082 26.2193C136.061 25.3684 135.227 24.3153 134.633 23.1263C134.042 21.9548 133.736 20.6604 133.74 19.3483V9.67432C133.735 8.36879 134.041 7.0808 134.633 5.91733C135.232 4.737 136.065 3.69156 137.082 2.84533C138.164 1.94803 139.393 1.24527 140.715 0.768325C142.139 0.249579 143.643 -0.0105133 145.158 0.000325295H170.941V6.47733H145.158C144.175 6.45262 143.216 6.78436 142.458 7.41132C142.11 7.67693 141.828 8.01929 141.633 8.41178C141.439 8.80427 141.338 9.23632 141.337 9.67432V19.3483C141.339 19.7891 141.44 20.2238 141.635 20.6195C141.829 21.0152 142.11 21.3616 142.458 21.6323C143.211 22.2714 144.172 22.6113 145.158 22.5873H170.941V29.0643L145.158 29.0633ZM147.566 11.1683H170.941V17.6453H147.565L147.566 11.1683Z" fill="white"/>
<path d="M184.832 14.4902H177.234V29.0632H184.832V14.4902Z" fill="white"/>
<path d="M214.476 5.27333C213.947 4.2189 213.205 3.28587 212.296 2.53333C211.331 1.73668 210.235 1.11162 209.058 0.685331C207.788 0.221987 206.445 -0.0100128 205.093 0.000331244H177.275V6.47733H205.093C205.757 6.45839 206.406 6.6796 206.919 7.10033C207.154 7.28172 207.343 7.51466 207.472 7.78105C207.602 8.04744 207.668 8.34011 207.666 8.63633V12.2903C207.667 12.5894 207.601 12.8847 207.471 13.1544C207.342 13.424 207.153 13.6609 206.919 13.8473C206.411 14.2804 205.761 14.5098 205.093 14.4913H194.215L203.682 29.0643H212.276L206.961 20.8003C208.11 20.6206 209.223 20.2637 210.261 19.7423C211.235 19.2567 212.125 18.6191 212.898 17.8533C213.636 17.1203 214.227 16.254 214.641 15.3003C215.056 14.3511 215.268 13.326 215.264 12.2903V8.63633C215.269 7.4689 215 6.31675 214.476 5.27333Z" fill="#F24405"/>
<path d="M247.752 0.000319884C249.264 -0.0101329 250.766 0.249964 252.186 0.76832C253.507 1.2454 254.735 1.9478 255.815 2.84432C256.832 3.69104 257.665 4.73682 258.262 5.91732C258.857 7.09519 259.163 8.39779 259.154 9.71732V19.3493C259.158 20.6612 258.852 21.9555 258.262 23.1273C257.669 24.3162 256.836 25.3693 255.815 26.2203C254.735 27.1188 253.507 27.8226 252.186 28.3003C250.765 28.8192 249.262 29.0793 247.749 29.0683H231.949C230.436 29.0794 228.933 28.8193 227.511 28.3003C226.19 27.8241 224.962 27.1216 223.882 26.2243C222.862 25.3733 222.029 24.3202 221.435 23.1313C220.845 21.9596 220.539 20.6653 220.543 19.3533V9.71532C220.534 8.39575 220.84 7.09307 221.435 5.91532C222.034 4.73517 222.868 3.69006 223.886 2.84432C224.966 1.94781 226.193 1.2454 227.513 0.76832C228.935 0.249673 230.437 -0.0104265 231.95 0.000319884H247.752ZM228.142 19.3483C228.144 19.789 228.246 20.2236 228.44 20.6191C228.634 21.0146 228.916 21.3608 229.264 21.6313C230.016 22.2706 230.977 22.6106 231.964 22.5863H247.786C248.288 22.59 248.787 22.5057 249.26 22.3373C249.697 22.1811 250.103 21.9493 250.46 21.6523C250.801 21.368 251.077 21.0141 251.27 20.6143C251.462 20.22 251.562 19.787 251.561 19.3483V9.71532C251.562 9.27667 251.462 8.84368 251.27 8.44932C251.077 8.04949 250.801 7.69557 250.46 7.41132C250.103 7.11438 249.697 6.88251 249.26 6.72632C248.787 6.55765 248.288 6.47337 247.786 6.47732H231.963C230.976 6.45359 230.016 6.79349 229.263 7.43232C228.915 7.70313 228.634 8.04945 228.439 8.44513C228.245 8.8408 228.143 9.27548 228.141 9.71632L228.142 19.3483Z" fill="white"/>
<path d="M291.83 0.000323664C293.343 -0.0104873 294.846 0.249614 296.267 0.768324C297.588 1.2454 298.816 1.9478 299.896 2.84432C300.913 3.69105 301.746 4.73682 302.343 5.91732C302.938 7.09519 303.244 8.3978 303.235 9.71732V19.3493C303.239 20.6612 302.933 21.9555 302.343 23.1273C301.75 24.3162 300.917 25.3693 299.896 26.2203C298.816 27.1188 297.588 27.8226 296.267 28.3003C294.846 28.8192 293.343 29.0793 291.83 29.0683H276.03C274.517 29.0794 273.014 28.8193 271.592 28.3003C270.271 27.8241 269.043 27.1217 267.963 26.2243C266.943 25.3732 266.11 24.3201 265.516 23.1313C264.927 21.9595 264.621 20.6652 264.625 19.3533V9.71532C264.616 8.39587 264.922 7.09326 265.516 5.91532C266.114 4.7349 266.947 3.68915 267.963 2.84232C269.044 1.94643 270.271 1.24469 271.591 0.768324C273.013 0.249677 274.515 -0.0104227 276.028 0.000323664H291.83ZM272.22 19.3483C272.222 19.789 272.324 20.2236 272.518 20.6191C272.713 21.0146 272.994 21.3608 273.342 21.6313C274.094 22.2707 275.055 22.6106 276.042 22.5863H291.861C292.363 22.59 292.862 22.5057 293.335 22.3373C293.772 22.181 294.178 21.9492 294.535 21.6523C294.876 21.368 295.152 21.0141 295.345 20.6143C295.537 20.22 295.637 19.787 295.636 19.3483V9.71532C295.637 9.27668 295.537 8.84369 295.345 8.44932C295.152 8.04951 294.876 7.69559 294.535 7.41132C294.178 7.11446 293.772 6.88261 293.335 6.72632C292.862 6.55768 292.363 6.4734 291.861 6.47732H276.041C275.055 6.45359 274.094 6.79349 273.341 7.43232C272.993 7.70313 272.712 8.04945 272.517 8.44513C272.323 8.84081 272.221 9.27549 272.219 9.71632L272.22 19.3483Z" fill="white"/>
<path d="M322.006 0.042L339.406 29.064H330.869L316.817 5.024V29.063H309.217V0.042H322.006ZM347.001 29.064H339.401V0H347.001V29.064Z" fill="white"/>
</g>
</svg>
