<?xml version="1.0" encoding="utf-8"?>
<!-- Generator: Adobe Illustrator 27.1.1, SVG Export Plug-In . SVG Version: 6.00 Build 0)  -->
<svg version="1.1" id="Layer_1" xmlns="http://www.w3.org/2000/svg" xmlns:xlink="http://www.w3.org/1999/xlink" x="0px" y="0px"
	 viewBox="0 0 552.9 193" style="enable-background:new 0 0 552.9 193;" xml:space="preserve">
<style type="text/css">
	.st0{fill:none;}
	.st1{fill:#FFFFFF;}
	.st2{fill:#F1AA1E;}
</style>
<g>
	<path class="st0" d="M187,54.9h-7.9V70h7.9c2.9,0,5.1-0.7,6.6-2c1.5-1.3,2.2-3.2,2.2-5.6s-0.7-4.2-2.2-5.6
		C192.1,55.6,189.9,54.9,187,54.9z"/>
	<polygon class="st0" points="246.9,75.7 259.4,75.7 253.2,59.5 	"/>
	<path class="st0" d="M325.2,54.9h-7.9V70h7.9c2.9,0,5.1-0.7,6.6-2c1.5-1.3,2.2-3.2,2.2-5.6s-0.7-4.2-2.2-5.6
		C330.3,55.6,328.1,54.9,325.2,54.9z"/>
	<path class="st0" d="M475.7,56.3c-2.2-1.3-4.6-2-7.3-2c-2.7,0-5.1,0.7-7.3,2c-2.2,1.3-3.9,3.2-5.2,5.6c-1.3,2.4-1.9,5.3-1.9,8.5
		c0,3.2,0.6,6.1,1.9,8.5c1.3,2.4,3,4.3,5.2,5.6c2.2,1.3,4.6,2,7.3,2c2.7,0,5.1-0.7,7.3-2c2.2-1.3,3.9-3.2,5.2-5.6
		c1.3-2.4,1.9-5.3,1.9-8.5c0-3.2-0.6-6.1-1.9-8.5C479.7,59.4,477.9,57.6,475.7,56.3z"/>
	<polygon class="st1" points="49.2,77.7 76.4,77.7 76.4,62.1 49.2,62.1 49.2,54.6 80.1,54.6 80.1,38.2 27.9,38.2 27.9,102.5 
		81.3,102.5 81.3,86.2 49.2,86.2 	"/>
	<polygon class="st1" points="153.4,38.2 130,38.2 119.4,54.4 108.4,38.2 84.1,38.2 106.5,70.1 83.3,102.5 108,102.5 118.8,85.3 
		129.9,102.5 154.7,102.5 131,69.3 	"/>
	<path class="st1" d="M214.1,49.6c-2.4-3.7-5.8-6.5-10.2-8.5c-4.4-2-9.6-2.9-15.5-2.9h-31v64.3h21.7V86.7h9.3c5.9,0,11.1-1,15.5-2.9
		c4.4-2,7.8-4.8,10.2-8.5c2.4-3.7,3.6-8,3.6-12.9S216.5,53.3,214.1,49.6z M193.6,68c-1.5,1.3-3.7,2-6.6,2h-7.9V54.9h7.9
		c2.9,0,5.1,0.7,6.6,2c1.5,1.3,2.2,3.2,2.2,5.6S195.1,66.7,193.6,68z"/>
	<path class="st1" d="M242.7,38.2l-28.1,64.3h22.1l4.3-11.2h24.4l4.3,11.2h22.4L264,38.2H242.7z M246.9,75.7l6.2-16.2l6.2,16.2
		H246.9z"/>
	<path class="st1" d="M352.8,74.5c2.1-3.4,3.1-7.4,3.1-12c0-4.9-1.2-9.2-3.6-12.9c-2.4-3.7-5.8-6.5-10.2-8.5
		c-4.4-2-9.6-2.9-15.5-2.9h-31v64.3h21.7V86.3h5.9l10.9,16.2h23.2l-13.5-19.8C347.7,80.7,350.7,77.9,352.8,74.5z M331.8,68
		c-1.5,1.3-3.7,2-6.6,2h-7.9V54.9h7.9c2.9,0,5.1,0.7,6.6,2c1.5,1.3,2.2,3.2,2.2,5.6S333.3,66.7,331.8,68z"/>
	<path class="st2" d="M399,54.3c5.6,0,10.4,2.4,14.4,7.1l13.9-12.2c-3.3-4-7.5-7.1-12.5-9.2c-5-2.1-10.6-3.2-17-3.2
		c-7,0-13.2,1.4-18.8,4.3c-5.5,2.8-9.9,6.8-13,11.9c-3.1,5.1-4.6,10.9-4.6,17.4c0,6.5,1.5,12.3,4.6,17.4c3.1,5.1,7.4,9.1,12.8,11.9
		c5.5,2.8,11.6,4.3,18.5,4.3c4.8,0,9.8-0.7,14.8-2.1c5-1.4,9.4-3.4,13.2-6.1V68.6h-18.8v16.3c-2.5,1-5.1,1.6-7.9,1.6
		c-4.7,0-8.4-1.5-11.2-4.4c-2.8-2.9-4.2-6.8-4.2-11.7c0-5,1.4-8.9,4.2-11.8C390.4,55.7,394.2,54.3,399,54.3z"/>
	<path class="st2" d="M478.6,38.2v-0.3c-3.2-0.8-6.6-1.1-10.1-1.1c-6.9,0-13.1,1.4-18.6,4.3c-5.5,2.9-9.8,6.9-13,12
		c-3.1,5.1-4.7,10.9-4.7,17.3c0,6.4,1.6,12.2,4.7,17.3c3.1,5.1,7.4,9.1,13,12c5.5,2.9,11.7,4.3,18.6,4.3s13.1-1.4,18.7-4.3
		c5.5-2.9,9.8-6.9,13-12c3.1-5.1,4.7-10.9,4.7-17.3c0-2.1-0.2-4.1-0.5-6C490,64.1,478.6,52.5,478.6,38.2z M480.9,78.9
		c-1.3,2.4-3,4.3-5.2,5.6c-2.2,1.3-4.6,2-7.3,2c-2.7,0-5.1-0.7-7.3-2c-2.2-1.3-3.9-3.2-5.2-5.6c-1.3-2.4-1.9-5.3-1.9-8.5
		c0-3.2,0.6-6.1,1.9-8.5c1.3-2.4,3-4.3,5.2-5.6c2.2-1.3,4.6-2,7.3-2c2.7,0,5.1,0.7,7.3,2c2.2,1.3,3.9,3.2,5.2,5.6
		c1.3,2.4,1.9,5.3,1.9,8.5C482.9,73.6,482.2,76.4,480.9,78.9z"/>
	<path class="st1" d="M504.7,16c-12.3,0-22.2,10-22.2,22.2s10,22.2,22.2,22.2c12.3,0,22.2-10,22.2-22.2S517,16,504.7,16z
		 M504.7,53.6v-7.7h-15.4V30.5h15.4v-7.7l15.4,15.4L504.7,53.6z"/>
	<g>
		<path class="st1" d="M56.6,156.5H62V172c-4,3.3-9.5,5-15,5c-12.2,0-21.1-8.6-21.1-20.3c0-11.7,9-20.3,21.2-20.3
			c6.3,0,11.6,2.1,15.2,6.1l-3.5,3.5c-3.3-3.2-7-4.6-11.5-4.6c-9.2,0-15.8,6.4-15.8,15.2c0,8.7,6.6,15.2,15.7,15.2
			c3.3,0,6.5-0.7,9.3-2.5V156.5z"/>
		<path class="st1" d="M99.4,176.6l-8.6-12.2c-0.8,0.1-1.6,0.1-2.5,0.1h-9.8v12.1h-5.7v-39.7h15.5c10.3,0,16.5,5.2,16.5,13.8
			c0,6.1-3.2,10.5-8.7,12.5l9.4,13.3H99.4z M99.2,150.7c0-5.7-3.8-8.9-11-8.9h-9.6v17.8h9.6C95.4,159.7,99.2,156.4,99.2,150.7z"/>
		<path class="st1" d="M110.8,156.7c0-11.6,9-20.3,21.1-20.3c12.1,0,21,8.6,21,20.3c0,11.7-9,20.3-21,20.3
			C119.8,177,110.8,168.3,110.8,156.7z M147.3,156.7c0-8.8-6.6-15.2-15.4-15.2c-8.9,0-15.5,6.5-15.5,15.2S123.1,172,132,172
			C140.7,172,147.3,165.5,147.3,156.7z"/>
		<path class="st1" d="M161.3,159.5v-22.5h5.7v22.3c0,8.8,4,12.7,11.2,12.7s11.2-4,11.2-12.7v-22.3h5.5v22.5
			c0,11.5-6.3,17.6-16.8,17.6C167.7,177,161.3,171,161.3,159.5z"/>
		<path class="st1" d="M238.5,150.7c0,8.6-6.2,13.8-16.5,13.8h-9.8v12h-5.7v-39.7h15.5C232.2,136.9,238.5,142.1,238.5,150.7z
			 M232.8,150.7c0-5.7-3.8-8.9-11-8.9h-9.6v17.8h9.6C229,159.6,232.8,156.4,232.8,150.7z"/>
		<path class="st1" d="M270.1,166.6H249l-4.4,9.9h-5.8l18-39.7h5.6l18,39.7h-5.9L270.1,166.6z M268.1,162.1l-8.6-19.4l-8.6,19.4
			H268.1z"/>
		<path class="st1" d="M313.2,156.5h5.4V172c-4,3.3-9.5,5-15,5c-12.2,0-21.1-8.6-21.1-20.3c0-11.7,9-20.3,21.2-20.3
			c6.3,0,11.6,2.1,15.2,6.1l-3.5,3.5c-3.3-3.2-7-4.6-11.5-4.6c-9.2,0-15.8,6.4-15.8,15.2c0,8.7,6.6,15.2,15.8,15.2
			c3.3,0,6.5-0.7,9.3-2.5V156.5z"/>
		<path class="st1" d="M358.3,171.6v4.9h-28.8v-39.7h28v4.9h-22.3V154H355v4.8h-19.9v12.8H358.3z"/>
	</g>
</g>
</svg>
