<svg width="195" height="39" viewBox="0 0 195 39" fill="none" xmlns="http://www.w3.org/2000/svg">
<path d="M78.0981 30.2021L86.0825 11.5537H83.4572L76.9482 27.0669L70.4608 11.5537H67.8789L75.8416 30.2564L78.0981 30.2021Z" fill="white"/>
<path d="M92.7113 30.2021V11.5537H90.2812V30.2021H92.7113Z" fill="white"/>
<path d="M105.684 30.2021V13.7234H111.618V11.5537H97.3418V13.7234H103.254V30.2021H105.684Z" fill="white"/>
<path d="M132.058 30.2021L124.149 11.5537H121.806L113.887 30.2564H116.458L118.237 26.0146H127.686L129.476 30.2021H132.058ZM122.88 14.9167L122.967 14.6021L123.043 14.9167L126.807 23.8992H119.094L122.88 14.9167Z" fill="white"/>
<path d="M149.773 26.1557L138.23 11.5537H136.18V30.2021H138.621V15.5785L150.087 30.2021H152.149V11.5537H149.729L149.773 26.1557Z" fill="white"/>
<path d="M166.066 30.5816C167.085 30.6347 168.103 30.4758 169.056 30.1149C170.01 29.7541 170.879 29.1992 171.607 28.4854C172.335 27.7716 172.907 26.9144 173.286 25.968C173.666 25.0217 173.845 24.0068 173.812 22.9877V11.4775H171.371V22.8033C171.42 23.5225 171.318 24.244 171.071 24.9215C170.825 25.599 170.439 26.2175 169.94 26.7374C169.44 27.2572 168.838 27.667 168.171 27.9404C167.504 28.2139 166.787 28.3449 166.066 28.3251C162.66 28.3251 160.751 25.8083 160.751 22.7707V11.4775H158.321V22.9551C158.286 23.9761 158.464 24.993 158.843 25.9418C159.222 26.8905 159.793 27.7503 160.521 28.467C161.249 29.1837 162.117 29.7417 163.072 30.1056C164.026 30.4696 165.046 30.6316 166.066 30.5816Z" fill="white"/>
<path d="M182.383 30.2015V23.1717H187.547L191.702 30.2123H194.565L190.053 22.8137C191.252 22.5125 192.313 21.8105 193.058 20.8239C193.804 19.8374 194.19 18.6256 194.153 17.3895C194.153 13.8746 191.571 11.5205 187.948 11.5205H179.996V30.2015H182.383ZM182.383 13.6793H187.807C188.307 13.6558 188.806 13.7341 189.274 13.9096C189.743 14.0851 190.171 14.354 190.532 14.7001C190.893 15.0461 191.18 15.462 191.376 15.9225C191.571 16.383 191.671 16.8784 191.669 17.3786C191.682 17.8791 191.591 18.3767 191.402 18.8404C191.213 19.304 190.931 19.7237 190.572 20.073C190.214 20.4224 189.787 20.6939 189.318 20.8705C188.85 21.0472 188.35 21.1252 187.85 21.0996H182.426L182.383 13.6793Z" fill="white"/>
<path d="M57.4311 0.34668L52.2673 9.28576L47.6242 17.3353L47.1577 6.16142L37.6328 0.34668H57.4311Z" fill="#DE754D"/>
<path d="M0 0.0108621C0 0.0108621 5.26148 0.173589 9.06926 7.00808C12.8771 13.8426 20.5035 27.5658 23.3566 32.4476C26.2097 37.3294 30.0284 40.4537 34.6172 36.7002C39.2061 32.9466 44.7063 22.4779 44.7063 22.4779C44.7063 22.4779 40.2476 27.6092 34.6606 23.4868C29.0737 19.3644 28.1516 14.7321 24.7018 9.29709C23.6573 7.59262 22.4974 5.96156 21.2303 4.41531C20.0449 3.02841 18.5725 1.91537 16.9149 1.15306C15.2573 0.390754 13.454 -0.00265398 11.6295 1.34744e-05L0 0.0108621Z" fill="white"/>
</svg>
